# xmcd CD database file
#
# Track frame offsets:
#	150
#	2377
#	14767
#	44282
#	57675
#	79210
#	94830
#	109632
#	127282
#	142657
#	154700
#
# Disc length: 2439 seconds
#
# Revision: 3
# Processed by: cddbd v1.5.1PL2 Copyright (c) Steve Scherf et al.
# Submitted via: CDex 1.51
#
DISCID=8c09850b
DTITLE=Dan Fogelberg - High Country Snows
DYEAR=1985
DGENRE=Slow Rock
TTITLE0=Down The Road
TTITLE1=Mountain Pass
TTITLE2=Sutter's Mill
TTITLE3=Wolf Creek
TTITLE4=High Country Snows
TTITLE5=The Outlaw
TTITLE6=Shallow Rivers
TTITLE7=Go Down Easy
TTITLE8=Wandering Shepherd
TTITLE9=Think Of What You've Done
TTITLE10=The Higher You Climb
EXTD=YEAR: 1985
EXTT0=
EXTT1=
EXTT2=
EXTT3=
EXTT4=
EXTT5=
EXTT6=
EXTT7=
EXTT8=
EXTT9=
EXTT10=
PLAYORDER=
